<svg width="320" height="220.38837324630393" viewBox="0 0 320 220.38837324630393" class="css-1j8o68f"><defs id="SvgjsDefs6060"></defs><g id="SvgjsG6061" featurekey="phAakL-0" transform="matrix(2.4271846458053328,0,0,2.4271846458053328,-71.35922766077933,-11.165049139230165)" fill="#0b2d8a"><title xmlns="http://www.w3.org/2000/svg">03</title><g xmlns="http://www.w3.org/2000/svg" data-name="Group"><path data-name="Compound Path" d="M36.3,64.7a4,4,0,0,0-4,4V91.4a4,4,0,0,0,4,4H63.7a4,4,0,0,0,4-4V68.7a4,4,0,0,0-4-4Zm9.4,2h8.6v7.2H45.7Zm20,2V91.4a2,2,0,0,1-2,2H36.3a2,2,0,0,1-2-2V68.7a2,2,0,0,1,2-2h7.4v8.2a1,1,0,0,0,1,1H55.3a1,1,0,0,0,1-1V66.7h7.4A2,2,0,0,1,65.7,68.7Z"></path><path data-name="Compound Path" d="M50,4.6c-11.4,0-20.6,9.6-20.6,21.3,0,6.7,3.5,14.1,10.1,21.3A64.8,64.8,0,0,0,49.4,56a1,1,0,0,0,1.2,0,64.8,64.8,0,0,0,9.9-8.8C67.1,40,70.6,32.6,70.6,25.9,70.6,14.2,61.4,4.6,50,4.6ZM50,54c-3.2-2.4-18.6-14.5-18.6-28.1C31.4,15.3,39.7,6.6,50,6.6s18.6,8.7,18.6,19.3C68.6,39.5,53.2,51.6,50,54Z"></path><path data-name="Compound Path" d="M50,15.8a9,9,0,1,0,9,9A9,9,0,0,0,50,15.8Zm0,16a7,7,0,1,1,7-7A7,7,0,0,1,50,31.8Z"></path></g></g><g id="SvgjsG6062" featurekey="fNbRbf-0" transform="matrix(1.6937665830909574,0,0,1.6937665830909574,118.91598900722589,78.32788298237674)" fill="#0b2d8a"><path d="M21.94 17.64 l-10.76 -12.5 l-10.42 12.5 c-0.08 0.09334 -0.12 0.20668 -0.12 0.34002 c0 0.38666 0.19334 0.58 0.58 0.58 c0.16 0 0.29334 -0.06666 0.4 -0.2 l0 0 l3.16 -3.8 l13.04 0 l3.28 3.8 c0.12 0.13334 0.26666 0.2 0.44 0.2 c0.36 0 0.54 -0.18 0.54 -0.54 c0 -0.14666 -0.04666 -0.27332 -0.14 -0.37998 z M5.72 13.440000000000001 l5.48 -6.58 l5.68 6.58 l-11.16 0 z M40.54 17.54 l-4.48 -2.98 l0.16 0 c1.2667 0 2.3434 -0.44666 3.23 -1.34 s1.33 -1.9667 1.33 -3.22 c0 -1.2667 -0.44334 -2.3434 -1.33 -3.23 s-1.9633 -1.33 -3.23 -1.33 l-12.56 0 l0 12.56 c0 0.37334 0.18666 0.56 0.56 0.56 s0.56 -0.18666 0.56 -0.56 l0 -3.44 l9.28 0 l5.86 3.9 c0.09334 0.06666 0.19334 0.1 0.3 0.1 c0.2 0 0.35334 -0.08666 0.46 -0.26 c0.06666 -0.09334 0.1 -0.19334 0.1 -0.3 c0 -0.2 -0.08 -0.35334 -0.24 -0.46 z M24.78 6.5600000000000005 l11.44 0 c0.94666 0 1.7567 0.33666 2.43 1.01 s1.01 1.4833 1.01 2.43 s-0.33666 1.7567 -1.01 2.43 s-1.4833 1.01 -2.43 1.01 l-11.44 0 l0 -6.88 z M42.480000000000004 14 c0 1.3733 0.82666 2.53 2.48 3.47 s3.68 1.41 6.08 1.41 c2.3866 0 4.3334 -0.26 5.84 -0.78 c1.8133 -0.62666 2.72 -1.5467 2.72 -2.76 c0 -1.2667 -0.77334 -2.18 -2.32 -2.74 c-0.88 -0.32 -2.5934 -0.65334 -5.14 -1 l-1.98 -0.28 c-2.4134 -0.34666 -4.0134 -0.65332 -4.8 -0.91998 c-1.1733 -0.4 -1.76 -0.98 -1.76 -1.74 c0 -0.72 0.69334 -1.3067 2.08 -1.76 s3.1734 -0.68 5.36 -0.68 c2.0134 0 3.7566 0.37334 5.23 1.12 s2.21 1.6333 2.21 2.66 l0 0 c0 0.37334 0.18666 0.56 0.56 0.56 s0.56 -0.18666 0.56 -0.56 l0 0 c0 -1.3733 -0.82666 -2.53 -2.48 -3.47 s-3.68 -1.41 -6.08 -1.41 c-2.3866 0 -4.3334 0.26 -5.84 0.78 c-1.8133 0.62666 -2.72 1.5467 -2.72 2.76 c0 1.2667 0.80666 2.1866 2.42 2.76 c0.77334 0.26666 2.48 0.6 5.12 1 l0.94 0.14 l1.02 0.14 c2.44 0.33334 4.06 0.64 4.86 0.92 c1.0933 0.37334 1.64 0.94668 1.64 1.72 c0 0.72 -0.69334 1.3067 -2.08 1.76 s-3.1734 0.68 -5.36 0.68 c-2.0134 0 -3.7566 -0.37334 -5.23 -1.12 s-2.21 -1.6333 -2.21 -2.66 l0 0 c0 -0.37334 -0.18666 -0.56 -0.56 -0.56 s-0.56 0.18666 -0.56 0.56 z M61.32000000000001 6.119999999999999 l0 12 c0 0.36 0.18 0.54 0.54 0.54 c0.37334 0 0.56 -0.18 0.56 -0.54 l0 0 l0 -12 c0 -0.37334 -0.18666 -0.56 -0.56 -0.56 c-0.36 0 -0.54 0.18666 -0.54 0.56 z M80.9 17.56 l-15.44 0 l0 -11.44 c0 -0.37334 -0.18666 -0.56 -0.56 -0.56 s-0.56 0.18666 -0.56 0.56 l0 12.54 l16.56 0 c0.37334 0 0.56 -0.18 0.56 -0.54 c0 -0.37334 -0.18666 -0.56 -0.56 -0.56 z M99.36 5.66 c-0.37334 0 -0.56 0.18666 -0.56 0.56 l0 5.44 l-14.88 0 l0 -5.44 c0 -0.37334 -0.18666 -0.56 -0.56 -0.56 s-0.56 0.18666 -0.56 0.56 l0 12 c0 0.37334 0.18666 0.56 0.56 0.56 s0.56 -0.18666 0.56 -0.56 l0 -5.44 l14.88 0 l0 5.44 c0 0.37334 0.18666 0.56 0.56 0.56 s0.56 -0.18666 0.56 -0.56 l0 -12 c0 -0.37334 -0.18666 -0.56 -0.56 -0.56 z M101.6 6.119999999999999 l0.000019531 7.76 c0 1.8667 0.97334 3.24 2.92 4.12 c1.4667 0.66666 3.3466 1 5.64 1 c2.3066 0 4.1934 -0.33334 5.66 -1 c1.9333 -0.88 2.9 -2.2534 2.9 -4.12 l0 -7.76 c0 -0.37334 -0.18666 -0.56 -0.56 -0.56 s-0.56 0.18666 -0.56 0.56 l0 0 l0 7.76 c0 1.5733 -0.96 2.6934 -2.88 3.36 c-1.24 0.42666 -2.76 0.64 -4.56 0.64 s-3.32 -0.21334 -4.56 -0.64 c-1.92 -0.66666 -2.88 -1.7867 -2.88 -3.36 l0 -7.76 c0 -0.37334 -0.18666 -0.56 -0.56 -0.56 s-0.56 0.18666 -0.56 0.56 z"></path></g><g id="SvgjsG6063" featurekey="gqtJpI-0" transform="matrix(0.7594599323930474,0,0,0.7594599323930474,119.96963719232332,117.30905396040694)" fill="#0b2d8a"><path d="M4.1 20.18 c-0.65334 0 -1.2335 -0.086738 -1.7401 -0.26008 s-0.93332 -0.45 -1.28 -0.83 s-0.60332 -0.87666 -0.76998 -1.49 s-0.23666 -1.3533 -0.21 -2.22 l1.2 0 c0 0.42666 0.02 0.87 0.06 1.33 s0.14666 0.88 0.32 1.26 s0.43668 0.69 0.79002 0.93 s0.84334 0.36 1.47 0.36 c0.53334 0 0.98668 -0.08 1.36 -0.24 s0.67668 -0.37334 0.91002 -0.64 s0.39668 -0.58 0.49002 -0.94 s0.14 -0.73334 0.14 -1.12 c0 -0.45334 -0.08334 -0.85 -0.25 -1.19 s-0.38666 -0.64334 -0.66 -0.91 s-0.59334 -0.50332 -0.96 -0.70998 s-0.75 -0.39 -1.15 -0.55 c-0.64 -0.25334 -1.2 -0.50334 -1.68 -0.75 s-0.87334 -0.52332 -1.18 -0.82998 s-0.53666 -0.66332 -0.69 -1.07 s-0.23 -0.90332 -0.23 -1.49 c0 -1.3333 0.35 -2.3266 1.05 -2.98 s1.7033 -0.98 3.01 -0.98 c1.1333 0 2.03 0.33 2.69 0.99 s0.99 1.65 0.99 2.97 l0 1.1 l-1.12 0 l0 -1.2 c0 -0.41334 -0.05 -0.79668 -0.15 -1.15 s-0.25666 -0.66334 -0.47 -0.93 s-0.48334 -0.47666 -0.81 -0.63 s-0.71666 -0.23 -1.17 -0.23 c-1.0667 0 -1.83 0.28 -2.29 0.84 s-0.67 1.3133 -0.63 2.26 c0.01334 0.41334 0.09 0.76668 0.23 1.06 s0.32666 0.55 0.56 0.77 s0.51334 0.41666 0.84 0.59 s0.69 0.34668 1.09 0.52002 c0.46666 0.2 0.93 0.41334 1.39 0.64 s0.89 0.50666 1.29 0.84 c0.4 0.34666 0.73 0.75 0.99 1.21 s0.39 1.03 0.39 1.71 c0 1.32 -0.33666 2.31 -1.01 2.97 s-1.61 0.99 -2.81 0.99 z M26.052 20 l0 -12.72 l-3.62 8.66 l-1.12 -0.02 l-3.54 -8.66 l0 12.74 l-0.98 0 l0 -15 l1.04 0 l4.06 9.76 l4.08 -9.76 l1.06 0 l0 15 l-0.98 0 z M43.584 20 l-1.1 -4.42 l-4.88 0 l-1.1 4.42 l-1 0 l4.14 -15 l0.86 0 l4.12 15 l-1.04 0 z M40.104 5.9399999999999995 l-2.26 8.68 l4.38 0 z M60.336 20 l-3.3 -6.22 l-3.06 0 l0 6.22 l-0.98 0 l0 -15 l3.4 0 c0.78666 0 1.46 0.11666 2.02 0.35 s1.02 0.55 1.38 0.95 s0.62666 0.86334 0.8 1.39 s0.26 1.0767 0.26 1.65 c0 0.97334 -0.25 1.85 -0.75 2.63 s-1.1567 1.35 -1.97 1.71 l3.52 6.32 l-1.32 0 z M56.256 5.92 l-2.28 -0.000019531 l0 6.84 l2.42 0 c0.68 0 1.24 -0.10334 1.68 -0.31 s0.78334 -0.47332 1.03 -0.79998 s0.42 -0.7 0.52 -1.12 s0.15 -0.85 0.15 -1.29 c0 -0.46666 -0.08 -0.9 -0.24 -1.3 s-0.39 -0.75 -0.69 -1.05 s-0.66666 -0.53666 -1.1 -0.71 s-0.93 -0.26 -1.49 -0.26 z M73.188 6.1 l0 13.9 l-1.16 0 l0 -13.9 l-3.26 0 l0 -1.1 l7.68 0 l0 1.1 l-3.26 0 z M102.892 16.96 c-0.09334 0.41334 -0.23 0.80334 -0.41 1.17 s-0.41666 0.69 -0.71 0.97 s-0.65 0.5 -1.07 0.66 s-0.91 0.24 -1.47 0.24 l-3.64 0 l0 -15 l3.5 0 c1.0133 0 1.8633 0.23666 2.55 0.71 s1.13 1.27 1.33 2.39 c0.04 0.21334 0.07334 0.54334 0.1 0.99 s0.04666 0.96 0.06 1.54 s0.02 1.19 0.02 1.83 s-0.01 1.2533 -0.03 1.84 s-0.05 1.1167 -0.09 1.59 s-0.08666 0.83 -0.14 1.07 z M98.91199999999999 6.02 l-2.32 0.000019531 l0 12.9 l2.6 0 c0.36 0 0.68 -0.06334 0.96 -0.19 s0.53 -0.29332 0.75 -0.49998 s0.40334 -0.43666 0.55 -0.69 s0.26666 -0.5 0.36 -0.74 c0.06666 -0.17334 0.12332 -0.48668 0.16998 -0.94002 s0.08 -0.97 0.1 -1.55 s0.03 -1.1967 0.03 -1.85 s-0.01 -1.2667 -0.03 -1.84 s-0.05 -1.08 -0.09 -1.52 s-0.08666 -0.74666 -0.14 -0.92 c-0.08 -0.24 -0.18666 -0.49 -0.32 -0.75 s-0.31 -0.49334 -0.53 -0.7 s-0.5 -0.37666 -0.84 -0.51 s-0.75666 -0.2 -1.25 -0.2 z M111.944 20 l0 -15 l7.36 0 l0 1.16 l-6.32 0 l0 5.7 l6.26 0 l0 0.92 l-6.26 0 l0 6.06 l6.46 0 l0 1.16 l-7.5 0 z M128.176 20 l0 -15 l1.08 0 l0 13.92 l5.1 0 l0 1.08 l-6.18 0 z M142.808 20 l0 -15 l1.28 0 l0 15 l-1.28 0 z M158.42 20 l-0.86 0 l-4.14 -15 l1.06 0 l3.5 13.26 l3.58 -13.26 l1.02 0 z M170.712 20 l0 -15 l7.36 0 l0 1.16 l-6.32 0 l0 5.7 l6.26 0 l0 0.92 l-6.26 0 l0 6.06 l6.46 0 l0 1.16 l-7.5 0 z M193.98399999999998 20 l-3.3 -6.22 l-3.06 0 l0 6.22 l-0.98 0 l0 -15 l3.4 0 c0.78666 0 1.46 0.11666 2.02 0.35 s1.02 0.55 1.38 0.95 s0.62666 0.86334 0.8 1.39 s0.26 1.0767 0.26 1.65 c0 0.97334 -0.25 1.85 -0.75 2.63 s-1.1567 1.35 -1.97 1.71 l3.52 6.32 l-1.32 0 z M189.90399999999997 5.92 l-2.28 -0.000019531 l0 6.84 l2.42 0 c0.68 0 1.24 -0.10334 1.68 -0.31 s0.78334 -0.47332 1.03 -0.79998 s0.42 -0.7 0.52 -1.12 s0.15 -0.85 0.15 -1.29 c0 -0.46666 -0.08 -0.9 -0.24 -1.3 s-0.39 -0.75 -0.69 -1.05 s-0.66666 -0.53666 -1.1 -0.71 s-0.93 -0.26 -1.49 -0.26 z M207.09599999999998 13.14 l0 6.86 l-1.08 0 l0 -6.86 l-3.62 -8.14 l1.24 0 l2.9 6.94 l2.94 -6.94 l1.24 0 z"></path></g></svg>