<?xml version="1.0" encoding="utf-8"?>
<!-- Generator: Adobe Illustrator 17.0.0, SVG Export Plug-In . SVG Version: 6.00 Build 0)  -->
<!DOCTYPE svg PUBLIC "-//W3C//DTD SVG 1.1//EN" "http://www.w3.org/Graphics/SVG/1.1/DTD/svg11.dtd">
<svg version="1.1" id="Layer_1" xmlns="http://www.w3.org/2000/svg" xmlns:xlink="http://www.w3.org/1999/xlink" x="0px" y="0px"
	 width="320px" height="220.388px" viewBox="0 0 320 220.388" enable-background="new 0 0 320 220.388" xml:space="preserve">
<g id="SvgjsG6061" transform="matrix(2.4271846458053328,0,0,2.4271846458053328,-71.35922766077933,-11.165049139230165)">
	<title  xmlns="http://www.w3.org/2000/svg">03</title>
	<g>
		<path fill="#FFFFFF" stroke="#FFFFFF" stroke-miterlimit="10" d="M37.536,64.7c-2.209,0-4,1.791-4,4v22.7c0,2.209,1.791,4,4,4
			h27.4c2.209,0,4-1.791,4-4V68.7c0-2.209-1.791-4-4-4H37.536z M46.936,66.7h8.6v7.2h-8.6L46.936,66.7z M66.936,68.7v22.7
			c0,1.105-0.895,2-2,2h-27.4c-1.105,0-2-0.895-2-2V68.7c0-1.105,0.895-2,2-2h7.4v8.2c0,0.552,0.448,1,1,1h10.6c0.552,0,1-0.448,1-1
			v-8.2h7.4C66.041,66.7,66.936,67.595,66.936,68.7z"/>
		<path fill="#FFFFFF" stroke="#FFFFFF" stroke-miterlimit="10" d="M51.236,4.6c-11.4,0-20.6,9.6-20.6,21.3
			c0,6.7,3.5,14.1,10.1,21.3c2.991,3.264,6.308,6.213,9.9,8.8c0.356,0.267,0.844,0.267,1.2,0c3.592-2.587,6.909-5.536,9.9-8.8
			c6.6-7.2,10.1-14.6,10.1-21.3C71.836,14.2,62.636,4.6,51.236,4.6z M51.236,54c-3.2-2.4-18.6-14.5-18.6-28.1
			c0-10.6,8.3-19.3,18.6-19.3s18.6,8.7,18.6,19.3C69.836,39.5,54.436,51.6,51.236,54z"/>
		<path fill="#FFFFFF" stroke="#FFFFFF" stroke-miterlimit="10" d="M51.236,15.8c-4.971,0-9,4.029-9,9s4.029,9,9,9s9-4.029,9-9
			c0,0,0,0,0,0C60.236,19.829,56.207,15.8,51.236,15.8z M51.236,31.8c-3.866,0-7-3.134-7-7s3.134-7,7-7s7,3.134,7,7
			S55.102,31.8,51.236,31.8z"/>
	</g>
</g>
<g id="SvgjsG6062" transform="matrix(1.6937665830909574,0,0,1.6937665830909574,118.91598900722589,78.32788298237674)">
	<path fill="#FFFFFF" stroke="#FFFFFF" stroke-miterlimit="10" d="M21.94,17.64L11.18,5.14L0.76,17.64
		c-0.08,0.093-0.12,0.207-0.12,0.34c0,0.387,0.193,0.58,0.58,0.58c0.16,0,0.293-0.067,0.4-0.2l0,0l3.16-3.8h13.04l3.28,3.8
		c0.12,0.133,0.267,0.2,0.44,0.2c0.36,0,0.54-0.18,0.54-0.54C22.08,17.873,22.033,17.747,21.94,17.64L21.94,17.64z M5.72,13.44
		l5.48-6.58l5.68,6.58C16.88,13.44,5.72,13.44,5.72,13.44z M40.54,17.54l-4.48-2.98h0.16c1.267,0,2.343-0.447,3.23-1.34
		c0.887-0.893,1.33-1.967,1.33-3.22c0-1.267-0.443-2.343-1.33-3.23c-0.887-0.887-1.963-1.33-3.23-1.33H23.66V18
		c0,0.373,0.187,0.56,0.56,0.56s0.56-0.187,0.56-0.56v-3.44h9.28l5.86,3.9c0.093,0.067,0.193,0.1,0.3,0.1
		c0.2,0,0.353-0.087,0.46-0.26c0.067-0.093,0.1-0.193,0.1-0.3C40.78,17.8,40.7,17.647,40.54,17.54L40.54,17.54z M24.78,6.56h11.44
		c0.947,0,1.757,0.337,2.43,1.01c0.673,0.673,1.01,1.483,1.01,2.43c0,0.947-0.337,1.757-1.01,2.43
		c-0.673,0.673-1.483,1.01-2.43,1.01H24.78C24.78,13.44,24.78,6.56,24.78,6.56z M42.48,14c0,1.373,0.827,2.53,2.48,3.47
		s3.68,1.41,6.08,1.41c2.387,0,4.333-0.26,5.84-0.78c1.813-0.627,2.72-1.547,2.72-2.76c0-1.267-0.773-2.18-2.32-2.74
		c-0.88-0.32-2.593-0.653-5.14-1l-1.98-0.28c-2.413-0.347-4.013-0.653-4.8-0.92C44.187,10,43.6,9.42,43.6,8.66
		c0-0.72,0.693-1.307,2.08-1.76c1.387-0.453,3.173-0.68,5.36-0.68c2.013,0,3.757,0.373,5.23,1.12c1.473,0.747,2.21,1.633,2.21,2.66
		l0,0c0,0.373,0.187,0.56,0.56,0.56S59.6,10.373,59.6,10l0,0c0-1.373-0.827-2.53-2.48-3.47s-3.68-1.41-6.08-1.41
		c-2.387,0-4.333,0.26-5.84,0.78c-1.813,0.627-2.72,1.547-2.72,2.76c0,1.267,0.807,2.187,2.42,2.76c0.773,0.267,2.48,0.6,5.12,1
		l0.94,0.14l1.02,0.14c2.44,0.333,4.06,0.64,4.86,0.92c1.093,0.373,1.64,0.947,1.64,1.72c0,0.72-0.693,1.307-2.08,1.76
		c-1.387,0.453-3.173,0.68-5.36,0.68c-2.013,0-3.757-0.373-5.23-1.12S43.6,15.027,43.6,14l0,0c0-0.373-0.187-0.56-0.56-0.56
		S42.48,13.627,42.48,14L42.48,14z M61.32,6.12v12c0,0.36,0.18,0.54,0.54,0.54c0.373,0,0.56-0.18,0.56-0.54l0,0v-12
		c0-0.373-0.187-0.56-0.56-0.56C61.5,5.56,61.32,5.747,61.32,6.12z M80.9,17.56H65.46V6.12c0-0.373-0.187-0.56-0.56-0.56
		s-0.56,0.187-0.56,0.56v12.54H80.9c0.373,0,0.56-0.18,0.56-0.54C81.46,17.747,81.273,17.56,80.9,17.56z M99.36,5.66
		c-0.373,0-0.56,0.187-0.56,0.56v5.44H83.92V6.22c0-0.373-0.187-0.56-0.56-0.56S82.8,5.847,82.8,6.22v12
		c0,0.373,0.187,0.56,0.56,0.56s0.56-0.187,0.56-0.56v-5.44H98.8v5.44c0,0.373,0.187,0.56,0.56,0.56s0.56-0.187,0.56-0.56v-12
		C99.92,5.847,99.733,5.66,99.36,5.66z M101.6,6.12l0,7.76c0,1.867,0.973,3.24,2.92,4.12c1.467,0.667,3.347,1,5.64,1
		c2.307,0,4.193-0.333,5.66-1c1.933-0.88,2.9-2.253,2.9-4.12V6.12c0-0.373-0.187-0.56-0.56-0.56s-0.56,0.187-0.56,0.56l0,0v7.76
		c0,1.573-0.96,2.693-2.88,3.36c-1.24,0.427-2.76,0.64-4.56,0.64c-1.8,0-3.32-0.213-4.56-0.64c-1.92-0.667-2.88-1.787-2.88-3.36
		V6.12c0-0.373-0.187-0.56-0.56-0.56S101.6,5.747,101.6,6.12L101.6,6.12z"/>
</g>
<g id="SvgjsG6063" transform="matrix(0.7594599323930474,0,0,0.7594599323930474,119.96963719232332,117.30905396040694)">
	<path fill="#FFFFFF" stroke="#FFFFFF" stroke-miterlimit="10" d="M4.1,20.18c-0.653,0-1.233-0.087-1.74-0.26s-0.933-0.45-1.28-0.83
		c-0.347-0.38-0.603-0.877-0.77-1.49s-0.237-1.353-0.21-2.22h1.2c0,0.427,0.02,0.87,0.06,1.33s0.147,0.88,0.32,1.26
		s0.437,0.69,0.79,0.93s0.843,0.36,1.47,0.36c0.533,0,0.987-0.08,1.36-0.24s0.677-0.373,0.91-0.64c0.233-0.267,0.397-0.58,0.49-0.94
		s0.14-0.733,0.14-1.12c0-0.453-0.083-0.85-0.25-1.19c-0.167-0.34-0.387-0.643-0.66-0.91s-0.593-0.503-0.96-0.71
		s-0.75-0.39-1.15-0.55c-0.64-0.253-1.2-0.503-1.68-0.75s-0.873-0.523-1.18-0.83s-0.537-0.663-0.69-1.07S0.04,9.407,0.04,8.82
		c0-1.333,0.35-2.327,1.05-2.98S2.793,4.86,4.1,4.86c1.133,0,2.03,0.33,2.69,0.99S7.78,7.5,7.78,8.82v1.1H6.66v-1.2
		c0-0.413-0.05-0.797-0.15-1.15S6.253,6.907,6.04,6.64S5.557,6.163,5.23,6.01S4.513,5.78,4.06,5.78c-1.067,0-1.83,0.28-2.29,0.84
		S1.1,7.933,1.14,8.88c0.013,0.413,0.09,0.767,0.23,1.06s0.327,0.55,0.56,0.77s0.513,0.417,0.84,0.59s0.69,0.347,1.09,0.52
		c0.467,0.2,0.93,0.413,1.39,0.64s0.89,0.507,1.29,0.84c0.4,0.347,0.73,0.75,0.99,1.21s0.39,1.03,0.39,1.71
		c0,1.32-0.337,2.31-1.01,2.97C6.237,19.85,5.3,20.18,4.1,20.18L4.1,20.18z M26.052,20V7.28l-3.62,8.66l-1.12-0.02l-3.54-8.66V20
		h-0.98V5h1.04l4.06,9.76L25.972,5h1.06v15H26.052z M43.584,20l-1.1-4.42h-4.88l-1.1,4.42h-1l4.14-15h0.86l4.12,15H43.584z
		 M40.104,5.94l-2.26,8.68h4.38L40.104,5.94z M60.336,20l-3.3-6.22h-3.06V20h-0.98V5h3.4c0.787,0,1.46,0.117,2.02,0.35
		s1.02,0.55,1.38,0.95s0.627,0.863,0.8,1.39s0.26,1.077,0.26,1.65c0,0.973-0.25,1.85-0.75,2.63s-1.157,1.35-1.97,1.71l3.52,6.32
		H60.336z M56.256,5.92l-2.28,0v6.84h2.42c0.68,0,1.24-0.103,1.68-0.31s0.783-0.473,1.03-0.8s0.42-0.7,0.52-1.12
		s0.15-0.85,0.15-1.29c0-0.467-0.08-0.9-0.24-1.3c-0.16-0.4-0.39-0.75-0.69-1.05s-0.667-0.537-1.1-0.71S56.816,5.92,56.256,5.92z
		 M73.188,6.1V20h-1.16V6.1h-3.26V5h7.68v1.1C76.448,6.1,73.188,6.1,73.188,6.1z M102.892,16.96c-0.093,0.413-0.23,0.803-0.41,1.17
		s-0.417,0.69-0.71,0.97c-0.293,0.28-0.65,0.5-1.07,0.66S99.792,20,99.232,20h-3.64V5h3.5c1.013,0,1.863,0.237,2.55,0.71
		s1.13,1.27,1.33,2.39c0.04,0.213,0.073,0.543,0.1,0.99s0.047,0.96,0.06,1.54s0.02,1.19,0.02,1.83s-0.01,1.253-0.03,1.84
		s-0.05,1.117-0.09,1.59C102.992,16.363,102.945,16.72,102.892,16.96z M98.912,6.02l-2.32,0v12.9h2.6c0.36,0,0.68-0.063,0.96-0.19
		s0.53-0.293,0.75-0.5s0.403-0.437,0.55-0.69s0.267-0.5,0.36-0.74c0.067-0.173,0.123-0.487,0.17-0.94
		c0.047-0.453,0.08-0.97,0.1-1.55s0.03-1.197,0.03-1.85s-0.01-1.267-0.03-1.84s-0.05-1.08-0.09-1.52s-0.087-0.747-0.14-0.92
		c-0.08-0.24-0.187-0.49-0.32-0.75s-0.31-0.493-0.53-0.7s-0.5-0.377-0.84-0.51S99.405,6.02,98.912,6.02L98.912,6.02z M111.944,20V5
		h7.36v1.16h-6.32v5.7h6.26v0.92h-6.26v6.06h6.46V20H111.944z M128.176,20V5h1.08v13.92h5.1V20H128.176L128.176,20z M142.808,20V5
		h1.28v15H142.808z M158.42,20h-0.86l-4.14-15h1.06l3.5,13.26L161.56,5h1.02L158.42,20z M170.712,20V5h7.36v1.16h-6.32v5.7h6.26
		v0.92h-6.26v6.06h6.46V20H170.712z M193.984,20l-3.3-6.22h-3.06V20h-0.98V5h3.4c0.787,0,1.46,0.117,2.02,0.35s1.02,0.55,1.38,0.95
		s0.627,0.863,0.8,1.39s0.26,1.077,0.26,1.65c0,0.973-0.25,1.85-0.75,2.63s-1.157,1.35-1.97,1.71l3.52,6.32H193.984z M189.904,5.92
		l-2.28,0v6.84h2.42c0.68,0,1.24-0.103,1.68-0.31s0.783-0.473,1.03-0.8s0.42-0.7,0.52-1.12s0.15-0.85,0.15-1.29
		c0-0.467-0.08-0.9-0.24-1.3c-0.16-0.4-0.39-0.75-0.69-1.05s-0.667-0.537-1.1-0.71S190.464,5.92,189.904,5.92L189.904,5.92z
		 M207.096,13.14V20h-1.08v-6.86L202.396,5h1.24l2.9,6.94l2.94-6.94h1.24L207.096,13.14z"/>
</g>
</svg>
